<?xml version="1.0" encoding="UTF-8"?>
<svg xmlns="http://www.w3.org/2000/svg" width="1180" height="28" viewBox="0 0 1180 28">
  <defs>
    <filter id="g" x="-50%" y="-50%" width="200%" height="200%">
      <feGaussianBlur stdDeviation="1.1" result="b"/>
      <feMerge><feMergeNode in="b"/><feMergeNode in="SourceGraphic"/></feMerge>
    </filter>
  </defs>
  <rect width="1180" height="28" fill="#07090d"/>
  <circle cx="25.0" cy="14.0" r="3.1" fill="#3dff8a" filter="url(#g)"/><circle cx="35.0" cy="14.0" r="3.1" fill="#3dff8a" filter="url(#g)"/><circle cx="45.0" cy="14.0" r="3.1" fill="#3dff8a" filter="url(#g)"/><circle cx="55.0" cy="14.0" r="2.2" fill="#0b1a12"/><circle cx="65.0" cy="14.0" r="3.1" fill="#3dff8a" filter="url(#g)"/><circle cx="75.0" cy="14.0" r="3.1" fill="#3dff8a" filter="url(#g)"/><circle cx="85.0" cy="14.0" r="3.1" fill="#3dff8a" filter="url(#g)"/><circle cx="95.0" cy="14.0" r="2.2" fill="#0b1a12"/><circle cx="105.0" cy="14.0" r="3.1" fill="#3dff8a" filter="url(#g)"/><circle cx="115.0" cy="14.0" r="3.1" fill="#3dff8a" filter="url(#g)"/><circle cx="125.0" cy="14.0" r="3.1" fill="#3dff8a" filter="url(#g)"/><circle cx="135.0" cy="14.0" r="2.2" fill="#0b1a12"/><circle cx="145.0" cy="14.0" r="3.1" fill="#3dff8a" filter="url(#g)"/><circle cx="155.0" cy="14.0" r="3.1" fill="#3dff8a" filter="url(#g)"/><circle cx="165.0" cy="14.0" r="3.1" fill="#3dff8a" filter="url(#g)"/><circle cx="175.0" cy="14.0" r="2.2" fill="#0b1a12"/><circle cx="185.0" cy="14.0" r="3.1" fill="#3dff8a" filter="url(#g)"/><circle cx="195.0" cy="14.0" r="3.1" fill="#3dff8a" filter="url(#g)"/><circle cx="205.0" cy="14.0" r="3.1" fill="#3dff8a" filter="url(#g)"/><circle cx="215.0" cy="14.0" r="2.2" fill="#0b1a12"/><circle cx="225.0" cy="14.0" r="3.1" fill="#3dff8a" filter="url(#g)"/><circle cx="235.0" cy="14.0" r="3.1" fill="#3dff8a" filter="url(#g)"/><circle cx="245.0" cy="14.0" r="3.1" fill="#3dff8a" filter="url(#g)"/><circle cx="255.0" cy="14.0" r="2.2" fill="#0b1a12"/><circle cx="265.0" cy="14.0" r="3.1" fill="#3dff8a" filter="url(#g)"/><circle cx="275.0" cy="14.0" r="3.1" fill="#3dff8a" filter="url(#g)"/><circle cx="285.0" cy="14.0" r="3.1" fill="#3dff8a" filter="url(#g)"/><circle cx="295.0" cy="14.0" r="2.2" fill="#0b1a12"/><circle cx="305.0" cy="14.0" r="3.1" fill="#3dff8a" filter="url(#g)"/><circle cx="315.0" cy="14.0" r="3.1" fill="#3dff8a" filter="url(#g)"/><circle cx="325.0" cy="14.0" r="3.1" fill="#3dff8a" filter="url(#g)"/><circle cx="335.0" cy="14.0" r="2.2" fill="#0b1a12"/><circle cx="345.0" cy="14.0" r="3.1" fill="#3dff8a" filter="url(#g)"/><circle cx="355.0" cy="14.0" r="3.1" fill="#3dff8a" filter="url(#g)"/><circle cx="365.0" cy="14.0" r="3.1" fill="#3dff8a" filter="url(#g)"/><circle cx="375.0" cy="14.0" r="2.2" fill="#0b1a12"/><circle cx="385.0" cy="14.0" r="3.1" fill="#3dff8a" filter="url(#g)"/><circle cx="395.0" cy="14.0" r="3.1" fill="#3dff8a" filter="url(#g)"/><circle cx="405.0" cy="14.0" r="3.1" fill="#3dff8a" filter="url(#g)"/><circle cx="415.0" cy="14.0" r="2.2" fill="#0b1a12"/><circle cx="425.0" cy="14.0" r="3.1" fill="#3dff8a" filter="url(#g)"/><circle cx="435.0" cy="14.0" r="3.1" fill="#3dff8a" filter="url(#g)"/><circle cx="445.0" cy="14.0" r="3.1" fill="#3dff8a" filter="url(#g)"/><circle cx="455.0" cy="14.0" r="2.2" fill="#0b1a12"/><circle cx="465.0" cy="14.0" r="3.1" fill="#3dff8a" filter="url(#g)"/><circle cx="475.0" cy="14.0" r="3.1" fill="#3dff8a" filter="url(#g)"/><circle cx="485.0" cy="14.0" r="3.1" fill="#3dff8a" filter="url(#g)"/><circle cx="495.0" cy="14.0" r="2.2" fill="#0b1a12"/><circle cx="505.0" cy="14.0" r="3.1" fill="#3dff8a" filter="url(#g)"/><circle cx="515.0" cy="14.0" r="3.1" fill="#3dff8a" filter="url(#g)"/><circle cx="525.0" cy="14.0" r="3.1" fill="#3dff8a" filter="url(#g)"/><circle cx="535.0" cy="14.0" r="2.2" fill="#0b1a12"/><circle cx="545.0" cy="14.0" r="3.1" fill="#3dff8a" filter="url(#g)"/><circle cx="555.0" cy="14.0" r="3.1" fill="#3dff8a" filter="url(#g)"/><circle cx="565.0" cy="14.0" r="3.1" fill="#3dff8a" filter="url(#g)"/><circle cx="575.0" cy="14.0" r="2.2" fill="#0b1a12"/><circle cx="585.0" cy="14.0" r="3.1" fill="#3dff8a" filter="url(#g)"/><circle cx="595.0" cy="14.0" r="3.1" fill="#3dff8a" filter="url(#g)"/><circle cx="605.0" cy="14.0" r="3.1" fill="#3dff8a" filter="url(#g)"/><circle cx="615.0" cy="14.0" r="2.2" fill="#0b1a12"/><circle cx="625.0" cy="14.0" r="3.1" fill="#3dff8a" filter="url(#g)"/><circle cx="635.0" cy="14.0" r="3.1" fill="#3dff8a" filter="url(#g)"/><circle cx="645.0" cy="14.0" r="3.1" fill="#3dff8a" filter="url(#g)"/><circle cx="655.0" cy="14.0" r="2.2" fill="#0b1a12"/><circle cx="665.0" cy="14.0" r="3.1" fill="#3dff8a" filter="url(#g)"/><circle cx="675.0" cy="14.0" r="3.1" fill="#3dff8a" filter="url(#g)"/><circle cx="685.0" cy="14.0" r="3.1" fill="#3dff8a" filter="url(#g)"/><circle cx="695.0" cy="14.0" r="2.2" fill="#0b1a12"/><circle cx="705.0" cy="14.0" r="3.1" fill="#3dff8a" filter="url(#g)"/><circle cx="715.0" cy="14.0" r="3.1" fill="#3dff8a" filter="url(#g)"/><circle cx="725.0" cy="14.0" r="3.1" fill="#3dff8a" filter="url(#g)"/><circle cx="735.0" cy="14.0" r="2.2" fill="#0b1a12"/><circle cx="745.0" cy="14.0" r="3.1" fill="#3dff8a" filter="url(#g)"/><circle cx="755.0" cy="14.0" r="3.1" fill="#3dff8a" filter="url(#g)"/><circle cx="765.0" cy="14.0" r="3.1" fill="#3dff8a" filter="url(#g)"/><circle cx="775.0" cy="14.0" r="2.2" fill="#0b1a12"/><circle cx="785.0" cy="14.0" r="3.1" fill="#3dff8a" filter="url(#g)"/><circle cx="795.0" cy="14.0" r="3.1" fill="#3dff8a" filter="url(#g)"/><circle cx="805.0" cy="14.0" r="3.1" fill="#3dff8a" filter="url(#g)"/><circle cx="815.0" cy="14.0" r="2.2" fill="#0b1a12"/><circle cx="825.0" cy="14.0" r="3.1" fill="#3dff8a" filter="url(#g)"/><circle cx="835.0" cy="14.0" r="3.1" fill="#3dff8a" filter="url(#g)"/><circle cx="845.0" cy="14.0" r="3.1" fill="#3dff8a" filter="url(#g)"/><circle cx="855.0" cy="14.0" r="2.2" fill="#0b1a12"/><circle cx="865.0" cy="14.0" r="3.1" fill="#3dff8a" filter="url(#g)"/><circle cx="875.0" cy="14.0" r="3.1" fill="#3dff8a" filter="url(#g)"/><circle cx="885.0" cy="14.0" r="3.1" fill="#3dff8a" filter="url(#g)"/><circle cx="895.0" cy="14.0" r="2.2" fill="#0b1a12"/><circle cx="905.0" cy="14.0" r="3.1" fill="#3dff8a" filter="url(#g)"/><circle cx="915.0" cy="14.0" r="3.1" fill="#3dff8a" filter="url(#g)"/><circle cx="925.0" cy="14.0" r="3.1" fill="#3dff8a" filter="url(#g)"/><circle cx="935.0" cy="14.0" r="2.2" fill="#0b1a12"/><circle cx="945.0" cy="14.0" r="3.1" fill="#3dff8a" filter="url(#g)"/><circle cx="955.0" cy="14.0" r="3.1" fill="#3dff8a" filter="url(#g)"/><circle cx="965.0" cy="14.0" r="3.1" fill="#3dff8a" filter="url(#g)"/><circle cx="975.0" cy="14.0" r="2.2" fill="#0b1a12"/><circle cx="985.0" cy="14.0" r="3.1" fill="#3dff8a" filter="url(#g)"/><circle cx="995.0" cy="14.0" r="3.1" fill="#3dff8a" filter="url(#g)"/><circle cx="1005.0" cy="14.0" r="3.1" fill="#3dff8a" filter="url(#g)"/><circle cx="1015.0" cy="14.0" r="2.2" fill="#0b1a12"/><circle cx="1025.0" cy="14.0" r="3.1" fill="#3dff8a" filter="url(#g)"/><circle cx="1035.0" cy="14.0" r="3.1" fill="#3dff8a" filter="url(#g)"/><circle cx="1045.0" cy="14.0" r="3.1" fill="#3dff8a" filter="url(#g)"/><circle cx="1055.0" cy="14.0" r="2.2" fill="#0b1a12"/><circle cx="1065.0" cy="14.0" r="3.1" fill="#3dff8a" filter="url(#g)"/><circle cx="1075.0" cy="14.0" r="3.1" fill="#3dff8a" filter="url(#g)"/><circle cx="1085.0" cy="14.0" r="3.1" fill="#3dff8a" filter="url(#g)"/><circle cx="1095.0" cy="14.0" r="2.2" fill="#0b1a12"/><circle cx="1105.0" cy="14.0" r="3.1" fill="#3dff8a" filter="url(#g)"/><circle cx="1115.0" cy="14.0" r="3.1" fill="#3dff8a" filter="url(#g)"/><circle cx="1125.0" cy="14.0" r="3.1" fill="#3dff8a" filter="url(#g)"/><circle cx="1135.0" cy="14.0" r="2.2" fill="#0b1a12"/><circle cx="1145.0" cy="14.0" r="3.1" fill="#3dff8a" filter="url(#g)"/><circle cx="1155.0" cy="14.0" r="3.1" fill="#3dff8a" filter="url(#g)"/>
</svg>
